# xmcd
#
# Track frame offsets: 
#        150
#        13384
#        33940
#        58271
#        87223
#        113854
#        144604
#        172084
#        197328
#        215488
#        243226
#        276908
#
# Disc length: 4522 seconds
#
# Revision: 7
# Processed by: cddbd v1.5.2PL0 Copyright (c) Steve Scherf et al.
# Submitted via: ExactAudioCopyFreeDBPlugin 1.0
#
DISCID=af11a80c
DTITLE=Ian Pooley - Since Then.
DYEAR=2000
DGENRE=Latin House
TTITLE0=Coração Tambor (Intro)
TTITLE1=Venasque
TTITLE2=Since Then
TTITLE3=Bay of Plenty
TTITLE4=Coração Tambor (feat. Rosanna and Zélia)
TTITLE5=Balmes
TTITLE6=Visions (feat. Kirsty Hawkshaw)
TTITLE7=Spicy Snapper
TTITLE8=Menino Brincadeira (feat. Rosanna and Zélia)
TTITLE9=900 Degrees
TTITLE10=Sundowner
TTITLE11=Cloud Patterns
EXTD=YEAR: 2000 ID3G: 35
EXTT0=
EXTT1=
EXTT2=
EXTT3=
EXTT4=
EXTT5=
EXTT6=
EXTT7=
EXTT8=
EXTT9=
EXTT10=
EXTT11=
PLAYORDER=
